<svg xmlns="http://www.w3.org/2000/svg" width="2200" height="1500" viewBox="0 0 2200 1500">
  <defs>
    <marker id="arrow" viewBox="0 0 10 10" refX="9" refY="5" markerWidth="8" markerHeight="8" orient="auto-start-reverse">
      <path d="M 0 0 L 10 5 L 0 10 z" fill="#334155"/>
    </marker>
    <filter id="shadow" x="-20%" y="-20%" width="140%" height="140%">
      <feDropShadow dx="0" dy="7" stdDeviation="7" flood-color="#0f172a" flood-opacity="0.12"/>
    </filter>
    <style>
      .bg { fill: #f8fafc; }
      .title { font: 700 42px Arial, sans-serif; fill: #0f172a; }
      .subtitle { font: 400 22px Arial, sans-serif; fill: #475569; }
      .entity { fill: #ffffff; stroke: #2563eb; stroke-width: 3; rx: 14; filter: url(#shadow); }
      .entityText { font: 700 22px Arial, sans-serif; fill: #1e3a8a; text-anchor: middle; dominant-baseline: middle; }
      .service { fill: #fff7ed; stroke: #f97316; stroke-width: 3; rx: 14; filter: url(#shadow); }
      .serviceText { font: 700 22px Arial, sans-serif; fill: #9a3412; text-anchor: middle; dominant-baseline: middle; }
      .process { fill: #ecfeff; stroke: #0891b2; stroke-width: 3; filter: url(#shadow); }
      .processText { font: 700 17px Arial, sans-serif; fill: #164e63; text-anchor: middle; dominant-baseline: middle; }
      .store { fill: #f0fdf4; stroke: #16a34a; stroke-width: 3; rx: 10; filter: url(#shadow); }
      .storeText { font: 700 17px Arial, sans-serif; fill: #14532d; text-anchor: middle; dominant-baseline: middle; }
      .arrow { stroke: #334155; stroke-width: 2.1; fill: none; marker-end: url(#arrow); }
      .arrowLight { stroke: #64748b; stroke-width: 1.8; fill: none; marker-end: url(#arrow); }
      .labelBox { fill: #f8fafc; stroke: #cbd5e1; stroke-width: 1; rx: 8; }
      .label { font: 500 14px Arial, sans-serif; fill: #334155; text-anchor: middle; dominant-baseline: middle; }
      .group { fill: #ffffff; stroke: #cbd5e1; stroke-width: 2; rx: 18; }
      .groupTitle { font: 700 20px Arial, sans-serif; fill: #334155; }
    </style>
  </defs>

  <rect class="bg" width="2200" height="1500"/>
  <text x="1100" y="62" class="title" text-anchor="middle">DFD Level 2 - Presensi Mata Pelajaran</text>
  <text x="1100" y="101" class="subtitle" text-anchor="middle">Rincian proses kelola sesi mapel, presensi siswa, alpha otomatis, dan notifikasi orang tua</text>

  <rect x="60" y="245" width="210" height="76" class="entity"/>
  <text x="165" y="283" class="entityText">Guru</text>
  <rect x="60" y="800" width="210" height="76" class="entity"/>
  <text x="165" y="838" class="entityText">Siswa</text>
  <rect x="1920" y="1010" width="210" height="90" class="entity"/>
  <text x="2025" y="1040" class="entityText">Orang Tua</text>
  <text x="2025" y="1070" class="entityText">atau Wali</text>
  <rect x="1920" y="720" width="210" height="76" class="service"/>
  <text x="2025" y="758" class="serviceText">Email Service</text>
  <rect x="1920" y="850" width="210" height="76" class="service"/>
  <text x="2025" y="888" class="serviceText">WhatsApp</text>

  <rect x="330" y="165" width="1510" height="360" class="group"/>
  <text x="360" y="203" class="groupTitle">9. Kelola Sesi Presensi Mapel</text>
  <circle cx="470" cy="330" r="72" class="process"/>
  <text x="470" y="312" class="processText">9.1 Pilih</text>
  <text x="470" y="337" class="processText">Jadwal</text>
  <text x="470" y="362" class="processText">Mengajar</text>
  <circle cx="760" cy="330" r="72" class="process"/>
  <text x="760" y="312" class="processText">9.2 Buat</text>
  <text x="760" y="337" class="processText">Sesi</text>
  <text x="760" y="362" class="processText">Mapel</text>
  <circle cx="1050" cy="330" r="72" class="process"/>
  <text x="1050" y="312" class="processText">9.3 Tutup</text>
  <text x="1050" y="337" class="processText">atau Hapus</text>
  <text x="1050" y="362" class="processText">Sesi</text>
  <circle cx="1340" cy="330" r="72" class="process"/>
  <text x="1340" y="312" class="processText">9.4 Catat</text>
  <text x="1340" y="337" class="processText">Alpha</text>
  <text x="1340" y="362" class="processText">Otomatis</text>
  <circle cx="1630" cy="330" r="72" class="process"/>
  <text x="1630" y="312" class="processText">9.5 Simpan</text>
  <text x="1630" y="337" class="processText">Laporan</text>
  <text x="1630" y="362" class="processText">Kemajuan</text>

  <rect x="330" y="620" width="1510" height="535" class="group"/>
  <text x="360" y="658" class="groupTitle">10. Melakukan Presensi Mapel</text>
  <circle cx="470" cy="800" r="72" class="process"/>
  <text x="470" y="782" class="processText">10.1</text>
  <text x="470" y="807" class="processText">Tampilkan</text>
  <text x="470" y="832" class="processText">Jadwal</text>
  <circle cx="760" cy="800" r="72" class="process"/>
  <text x="760" y="782" class="processText">10.2</text>
  <text x="760" y="807" class="processText">Ambil</text>
  <text x="760" y="832" class="processText">GPS</text>
  <circle cx="1050" cy="800" r="72" class="process"/>
  <text x="1050" y="782" class="processText">10.3</text>
  <text x="1050" y="807" class="processText">Validasi</text>
  <text x="1050" y="832" class="processText">Input</text>
  <circle cx="1340" cy="800" r="72" class="process"/>
  <text x="1340" y="782" class="processText">10.4</text>
  <text x="1340" y="807" class="processText">Validasi</text>
  <text x="1340" y="832" class="processText">Sesi Aktif</text>
  <circle cx="1630" cy="800" r="72" class="process"/>
  <text x="1630" y="782" class="processText">10.5</text>
  <text x="1630" y="807" class="processText">Validasi</text>
  <text x="1630" y="832" class="processText">Lokasi</text>
  <circle cx="760" cy="1010" r="72" class="process"/>
  <text x="760" y="992" class="processText">10.6</text>
  <text x="760" y="1017" class="processText">Simpan</text>
  <text x="760" y="1042" class="processText">Bukti</text>
  <circle cx="1050" cy="1010" r="72" class="process"/>
  <text x="1050" y="992" class="processText">10.7</text>
  <text x="1050" y="1017" class="processText">Simpan</text>
  <text x="1050" y="1042" class="processText">Presensi</text>
  <circle cx="1340" cy="1010" r="72" class="process"/>
  <text x="1340" y="992" class="processText">10.8</text>
  <text x="1340" y="1017" class="processText">Status dan</text>
  <text x="1340" y="1042" class="processText">Riwayat</text>
  <circle cx="1630" cy="1010" r="72" class="process"/>
  <text x="1630" y="992" class="processText">12.1</text>
  <text x="1630" y="1017" class="processText">Ambil</text>
  <text x="1630" y="1042" class="processText">Kontak</text>
  <circle cx="1780" cy="1010" r="72" class="process"/>
  <text x="1780" y="992" class="processText">12.2</text>
  <text x="1780" y="1017" class="processText">Kirim</text>
  <text x="1780" y="1042" class="processText">Notifikasi</text>

  <rect x="365" y="1250" width="245" height="72" class="store"/>
  <text x="487" y="1286" class="storeText">D2 Buku Induk</text>
  <rect x="655" y="1250" width="260" height="72" class="store"/>
  <text x="785" y="1286" class="storeText">D4 Jadwal Mapel</text>
  <rect x="960" y="1250" width="280" height="72" class="store"/>
  <text x="1100" y="1286" class="storeText">D5 Jadwal Mapel Siswa</text>
  <rect x="1285" y="1250" width="235" height="72" class="store"/>
  <text x="1402" y="1286" class="storeText">D6 Lokasi Sekolah</text>
  <rect x="1565" y="1250" width="265" height="72" class="store"/>
  <text x="1697" y="1286" class="storeText">D9 Presensi Mapel Sesi</text>
  <rect x="365" y="1360" width="245" height="72" class="store"/>
  <text x="487" y="1396" class="storeText">D10 Presensi Mapel</text>
  <rect x="655" y="1360" width="260" height="72" class="store"/>
  <text x="785" y="1396" class="storeText">D11 File Upload Bukti</text>

  <path d="M270 283 L398 320" class="arrow"/>
  <rect x="285" y="306" width="116" height="36" class="labelBox"/>
  <text x="343" y="324" class="label">pilih mapel</text>
  <path d="M542 330 L688 330" class="arrow"/>
  <path d="M832 330 L978 330" class="arrow"/>
  <path d="M1122 330 L1268 330" class="arrow"/>
  <path d="M1050 402 C1170 470 1450 470 1588 386" class="arrowLight"/>

  <path d="M270 838 L398 807" class="arrow"/>
  <rect x="286" y="784" width="115" height="36" class="labelBox"/>
  <text x="343" y="802" class="label">buka halaman</text>
  <path d="M542 800 L688 800" class="arrow"/>
  <path d="M832 800 L978 800" class="arrow"/>
  <path d="M1122 800 L1268 800" class="arrow"/>
  <path d="M1412 800 L1558 800" class="arrow"/>
  <path d="M1050 872 C980 940 890 976 832 999" class="arrowLight"/>
  <path d="M832 1010 L978 1010" class="arrow"/>
  <path d="M1630 872 C1508 960 1215 999 1122 1008" class="arrow"/>
  <path d="M1122 1010 L1268 1010" class="arrow"/>
  <path d="M1268 1010 L270 850" class="arrowLight"/>

  <path d="M470 402 L785 1250" class="arrowLight"/>
  <path d="M470 872 L785 1250" class="arrowLight"/>
  <path d="M470 872 L1100 1250" class="arrowLight"/>
  <path d="M1050 872 L1100 1250" class="arrowLight"/>
  <path d="M760 402 L1697 1250" class="arrowLight"/>
  <path d="M1050 402 L1697 1250" class="arrowLight"/>
  <path d="M1340 872 L1697 1250" class="arrowLight"/>
  <path d="M1340 402 L1100 1250" class="arrowLight"/>
  <path d="M1340 402 L487 1360" class="arrowLight"/>
  <path d="M1630 872 L1402 1250" class="arrowLight"/>
  <path d="M760 1082 L785 1360" class="arrowLight"/>
  <path d="M1050 1082 L487 1360" class="arrowLight"/>
  <path d="M1340 1082 L487 1360" class="arrowLight"/>
  <path d="M1630 1082 L487 1250" class="arrowLight"/>

  <path d="M1412 1010 L1558 1010" class="arrowLight"/>
  <path d="M1702 1010 L1708 1010" class="arrow"/>
  <path d="M1708 1010 L1850 930" class="arrow"/>
  <path d="M1850 930 L1920 890" class="arrow"/>
  <path d="M1850 930 L1920 765" class="arrow"/>
  <path d="M2025 796 L2025 1010" class="arrow"/>
  <path d="M2025 926 L2025 1010" class="arrow"/>

  <rect x="1710" y="1115" width="150" height="38" class="labelBox"/>
  <text x="1785" y="1134" class="label">notifikasi alpha</text>
  <rect x="1478" y="1130" width="150" height="38" class="labelBox"/>
  <text x="1553" y="1149" class="label">kontak orang tua</text>
  <rect x="1128" y="1116" width="166" height="38" class="labelBox"/>
  <text x="1211" y="1135" class="label">status dan riwayat</text>
  <rect x="1523" y="880" width="166" height="38" class="labelBox"/>
  <text x="1606" y="899" class="label">radius dan fake GPS</text>
</svg>
