<svg xmlns="http://www.w3.org/2000/svg" width="2200" height="1600" viewBox="0 0 2200 1600">
  <defs>
    <marker id="arrow" viewBox="0 0 10 10" refX="9" refY="5" markerWidth="8" markerHeight="8" orient="auto-start-reverse">
      <path d="M 0 0 L 10 5 L 0 10 z" fill="#334155"/>
    </marker>
    <filter id="shadow" x="-20%" y="-20%" width="140%" height="140%">
      <feDropShadow dx="0" dy="7" stdDeviation="7" flood-color="#0f172a" flood-opacity="0.12"/>
    </filter>
    <style>
      .bg { fill: #f8fafc; }
      .title { font: 700 42px Arial, sans-serif; fill: #0f172a; }
      .subtitle { font: 400 22px Arial, sans-serif; fill: #475569; }
      .entity { fill: #ffffff; stroke: #2563eb; stroke-width: 3; rx: 14; filter: url(#shadow); }
      .entityText { font: 700 22px Arial, sans-serif; fill: #1e3a8a; text-anchor: middle; dominant-baseline: middle; }
      .process { fill: #ecfeff; stroke: #0891b2; stroke-width: 3; filter: url(#shadow); }
      .processText { font: 700 18px Arial, sans-serif; fill: #164e63; text-anchor: middle; dominant-baseline: middle; }
      .store { fill: #f0fdf4; stroke: #16a34a; stroke-width: 3; rx: 10; filter: url(#shadow); }
      .storeText { font: 700 17px Arial, sans-serif; fill: #14532d; text-anchor: middle; dominant-baseline: middle; }
      .service { fill: #fff7ed; stroke: #f97316; stroke-width: 3; rx: 14; filter: url(#shadow); }
      .arrow { stroke: #334155; stroke-width: 2.1; fill: none; marker-end: url(#arrow); }
      .arrowLight { stroke: #64748b; stroke-width: 1.8; fill: none; marker-end: url(#arrow); }
      .labelBox { fill: #f8fafc; stroke: #cbd5e1; stroke-width: 1; rx: 8; }
      .label { font: 500 14px Arial, sans-serif; fill: #334155; text-anchor: middle; dominant-baseline: middle; }
      .group { fill: #ffffff; stroke: #cbd5e1; stroke-width: 2; rx: 18; }
      .groupTitle { font: 700 18px Arial, sans-serif; fill: #334155; }
    </style>
  </defs>

  <rect class="bg" width="2200" height="1600"/>
  <text x="1100" y="62" class="title" text-anchor="middle">DFD Level 1 - Sistem Presensi SMK</text>
  <text x="1100" y="101" class="subtitle" text-anchor="middle">Dekomposisi proses utama, entitas luar, dan data store</text>

  <rect x="60" y="170" width="210" height="76" class="entity"/><text x="165" y="208" class="entityText">Admin</text>
  <rect x="60" y="430" width="210" height="76" class="entity"/><text x="165" y="468" class="entityText">Admin Kesiswaan</text>
  <rect x="60" y="690" width="210" height="76" class="entity"/><text x="165" y="728" class="entityText">Guru</text>
  <rect x="60" y="950" width="210" height="76" class="entity"/><text x="165" y="988" class="entityText">Siswa</text>

  <rect x="1930" y="245" width="210" height="76" class="service"/><text x="2035" y="283" class="entityText" fill="#9a3412">Email Service</text>
  <rect x="1930" y="405" width="210" height="76" class="service"/><text x="2035" y="443" class="entityText" fill="#9a3412">WhatsApp</text>
  <rect x="1930" y="630" width="210" height="90" class="entity"/><text x="2035" y="660" class="entityText">Orang Tua</text><text x="2035" y="690" class="entityText">atau Wali</text>

  <rect x="350" y="145" width="1450" height="910" class="group"/>
  <text x="380" y="182" class="groupTitle">Proses Utama</text>

  <circle cx="560" cy="270" r="78" class="process"/><text x="560" y="258" class="processText">1. Login</text><text x="560" y="283" class="processText">Akun</text>
  <circle cx="900" cy="270" r="78" class="process"/><text x="900" y="258" class="processText">2. Kelola</text><text x="900" y="283" class="processText">User</text>
  <circle cx="1240" cy="270" r="78" class="process"/><text x="1240" y="258" class="processText">3. Kelola</text><text x="1240" y="283" class="processText">Buku Induk</text>
  <circle cx="1580" cy="270" r="78" class="process"/><text x="1580" y="258" class="processText">4. Kelola</text><text x="1580" y="283" class="processText">Kelas</text>

  <circle cx="560" cy="500" r="78" class="process"/><text x="560" y="488" class="processText">5. Kelola</text><text x="560" y="513" class="processText">Jadwal Mapel</text>
  <circle cx="900" cy="500" r="78" class="process"/><text x="900" y="488" class="processText">6. Kelola</text><text x="900" y="513" class="processText">Lokasi</text>
  <circle cx="1240" cy="500" r="78" class="process"/><text x="1240" y="488" class="processText">7. Kelola</text><text x="1240" y="513" class="processText">Sesi Sekolah</text>
  <circle cx="1580" cy="500" r="78" class="process"/><text x="1580" y="488" class="processText">8. Presensi</text><text x="1580" y="513" class="processText">Sekolah</text>

  <circle cx="560" cy="760" r="78" class="process"/><text x="560" y="748" class="processText">9. Kelola</text><text x="560" y="773" class="processText">Sesi Mapel</text>
  <circle cx="900" cy="760" r="78" class="process"/><text x="900" y="748" class="processText">10. Presensi</text><text x="900" y="773" class="processText">Mapel</text>
  <circle cx="1240" cy="760" r="78" class="process"/><text x="1240" y="748" class="processText">11. Laporan</text><text x="1240" y="773" class="processText">dan Ekspor</text>
  <circle cx="1580" cy="760" r="78" class="process"/><text x="1580" y="748" class="processText">12. Kirim</text><text x="1580" y="773" class="processText">Notifikasi</text>

  <rect x="285" y="1135" width="1720" height="300" class="group"/>
  <text x="315" y="1172" class="groupTitle">Data Store</text>
  <rect x="330" y="1210" width="220" height="72" class="store"/><text x="440" y="1246" class="storeText">D1 Users</text>
  <rect x="590" y="1210" width="220" height="72" class="store"/><text x="700" y="1246" class="storeText">D2 Buku Induk</text>
  <rect x="850" y="1210" width="220" height="72" class="store"/><text x="960" y="1246" class="storeText">D3 Kelas</text>
  <rect x="1110" y="1210" width="260" height="72" class="store"/><text x="1240" y="1246" class="storeText">D4 Jadwal Mapel</text>
  <rect x="1410" y="1210" width="260" height="72" class="store"/><text x="1540" y="1246" class="storeText">D5 Jadwal Mapel Siswa</text>
  <rect x="1710" y="1210" width="220" height="72" class="store"/><text x="1820" y="1246" class="storeText">D6 Lokasi Sekolah</text>
  <rect x="330" y="1325" width="260" height="72" class="store"/><text x="460" y="1361" class="storeText">D7 Presensi Sekolah Sesi</text>
  <rect x="630" y="1325" width="240" height="72" class="store"/><text x="750" y="1361" class="storeText">D8 Presensi Sekolah</text>
  <rect x="910" y="1325" width="250" height="72" class="store"/><text x="1035" y="1361" class="storeText">D9 Presensi Mapel Sesi</text>
  <rect x="1200" y="1325" width="230" height="72" class="store"/><text x="1315" y="1361" class="storeText">D10 Presensi Mapel</text>
  <rect x="1470" y="1325" width="260" height="72" class="store"/><text x="1600" y="1361" class="storeText">D11 File Upload Bukti</text>

  <path d="M270 208 L485 252" class="arrow"/><path d="M270 468 L485 281" class="arrowLight"/><path d="M270 728 L485 300" class="arrowLight"/><path d="M270 988 L485 317" class="arrowLight"/>
  <rect x="292" y="230" width="145" height="38" class="labelBox"/><text x="365" y="249" class="label">data login</text>

  <path d="M270 208 C440 200 650 185 835 244" class="arrow"/><path d="M270 208 C520 245 880 245 1164 263" class="arrowLight"/><path d="M270 208 C680 220 1100 215 1504 256" class="arrowLight"/>
  <path d="M270 208 C390 350 430 430 490 473" class="arrowLight"/><path d="M270 208 C540 390 690 450 825 488" class="arrowLight"/><path d="M270 208 C620 430 890 485 1163 493" class="arrowLight"/><path d="M270 208 C735 625 990 720 1164 751" class="arrowLight"/>
  <rect x="328" y="190" width="135" height="38" class="labelBox"/><text x="395" y="209" class="label">kelola master</text>

  <path d="M270 468 C535 430 850 360 1166 287" class="arrow"/><path d="M270 468 C560 420 955 445 1164 488" class="arrowLight"/><path d="M270 468 C650 575 940 707 1164 748" class="arrowLight"/>
  <path d="M270 728 L482 760" class="arrow"/><path d="M270 728 C570 755 705 758 822 760" class="arrowLight"/><path d="M270 728 C670 710 950 723 1164 746" class="arrowLight"/>
  <path d="M270 988 C535 885 690 807 822 772" class="arrow"/><path d="M270 988 C650 1010 960 855 1164 786" class="arrowLight"/><path d="M270 988 C620 700 1080 540 1502 508" class="arrowLight"/>
  <rect x="314" y="950" width="158" height="38" class="labelBox"/><text x="393" y="969" class="label">GPS dan presensi</text>

  <path d="M560 348 L450 1210" class="arrowLight"/><path d="M560 348 L700 1210" class="arrowLight"/>
  <path d="M900 348 L440 1210" class="arrowLight"/>
  <path d="M1240 348 L700 1210" class="arrowLight"/><path d="M1240 348 L1600 1325" class="arrowLight"/>
  <path d="M1580 348 L960 1210" class="arrowLight"/>
  <path d="M560 578 L960 1210" class="arrowLight"/><path d="M560 578 L1240 1210" class="arrowLight"/><path d="M560 578 L1540 1210" class="arrowLight"/><path d="M560 578 L440 1210" class="arrowLight"/>
  <path d="M900 578 L1820 1210" class="arrowLight"/>
  <path d="M1240 578 L460 1325" class="arrowLight"/><path d="M1240 578 L750 1325" class="arrowLight"/><path d="M1240 578 C1370 635 1475 690 1523 716" class="arrowLight"/>
  <path d="M1580 578 L460 1325" class="arrowLight"/><path d="M1580 578 L750 1325" class="arrowLight"/><path d="M1580 578 L1820 1210" class="arrowLight"/><path d="M1580 578 L1600 1325" class="arrowLight"/>
  <path d="M560 838 L1240 1210" class="arrowLight"/><path d="M560 838 L1035 1325" class="arrowLight"/><path d="M560 838 L1315 1325" class="arrowLight"/><path d="M560 838 C900 770 1260 750 1502 760" class="arrowLight"/>
  <path d="M900 838 L1540 1210" class="arrowLight"/><path d="M900 838 L1035 1325" class="arrowLight"/><path d="M900 838 L1315 1325" class="arrowLight"/><path d="M900 838 L1820 1210" class="arrowLight"/><path d="M900 838 L1600 1325" class="arrowLight"/>
  <path d="M1240 838 L700 1210" class="arrowLight"/><path d="M1240 838 L960 1210" class="arrowLight"/><path d="M1240 838 L1240 1210" class="arrowLight"/><path d="M1240 838 L750 1325" class="arrowLight"/><path d="M1240 838 L1035 1325" class="arrowLight"/><path d="M1240 838 L1315 1325" class="arrowLight"/>
  <path d="M1580 838 L700 1210" class="arrowLight"/>

  <path d="M1658 744 C1778 680 1840 555 1930 475" class="arrow"/><path d="M1658 776 C1782 785 1870 720 1930 690" class="arrow"/>
  <path d="M1930 283 C1870 330 1820 390 1658 727" class="arrowLight"/>
  <path d="M1930 443 C1845 502 1775 620 1658 742" class="arrowLight"/>
  <path d="M2035 321 L2035 630" class="arrow"/><path d="M2035 481 L2035 630" class="arrow"/>
  <rect x="1740" y="674" width="160" height="40" class="labelBox"/><text x="1820" y="694" class="label">notifikasi alpha</text>

  <path d="M638 270 L822 270" class="arrowLight"/><path d="M978 270 L1162 270" class="arrowLight"/><path d="M1318 270 L1502 270" class="arrowLight"/>
  <path d="M638 500 L822 500" class="arrowLight"/><path d="M1318 500 L1502 500" class="arrowLight"/>
  <path d="M638 760 L822 760" class="arrowLight"/><path d="M978 760 L1162 760" class="arrowLight"/><path d="M1318 760 L1502 760" class="arrowLight"/>
</svg>
